<svg width="76" height="76" viewBox="0 0 76 76" fill="none" xmlns="http://www.w3.org/2000/svg">
<path d="M37.8359 29.0423L33.3583 24.5647L19.9189 38.0008L33.3551 51.437L37.8328 46.9562L32.0473 41.1675L55.9144 41.1675L55.9144 34.8342L32.0473 34.8342L37.8359 29.0423Z" fill="white"/>
<path fill-rule="evenodd" clip-rule="evenodd" d="M13.37 13.3701C-0.234009 26.9741 -0.234008 49.0267 13.37 62.6307C26.974 76.2347 49.0267 76.2347 62.6307 62.6307C76.2347 49.0267 76.2347 26.9741 62.6307 13.3701C49.0267 -0.233927 26.974 -0.233926 13.37 13.3701ZM17.8477 17.8477C12.5028 23.1926 9.50015 30.4417 9.50015 38.0004C9.50015 45.5591 12.5028 52.8083 17.8477 58.1531C23.1925 63.4979 30.4416 66.5006 38.0003 66.5006C45.559 66.5006 52.8082 63.4979 58.153 58.1531C63.4978 52.8083 66.5005 45.5591 66.5005 38.0004C66.5005 30.4417 63.4978 23.1926 58.153 17.8477C52.8082 12.5029 45.559 9.50023 38.0003 9.50023C30.4416 9.50024 23.1925 12.5029 17.8477 17.8477Z" fill="white"/>
</svg>
