<svg width="70" height="70" viewBox="0 0 70 70" fill="none" xmlns="http://www.w3.org/2000/svg">
<path d="M35.165 43.9577L39.6427 48.4353L53.082 34.9992L39.6459 21.563L35.1682 26.0438L40.9537 31.8325L17.0865 31.8325L17.0865 38.1658L40.9537 38.1658L35.165 43.9577Z" fill="white"/>
<path fill-rule="evenodd" clip-rule="evenodd" d="M59.631 59.6299C73.235 46.0259 73.235 23.9733 59.631 10.3693C46.027 -3.23474 23.9743 -3.23474 10.3703 10.3693C-3.23368 23.9733 -3.23368 46.0259 10.3703 59.6299C23.9743 73.2339 46.027 73.2339 59.631 59.6299ZM55.1533 55.1523C60.4981 49.8074 63.5008 42.5583 63.5008 34.9996C63.5008 27.4409 60.4981 20.1917 55.1533 14.8469C49.8085 9.50211 42.5594 6.49942 35.0007 6.49942C27.4419 6.49942 20.1928 9.5021 14.848 14.8469C9.50317 20.1917 6.50048 27.4409 6.50048 34.9996C6.50048 42.5583 9.50316 49.8074 14.848 55.1523C20.1928 60.4971 27.4419 63.4998 35.0006 63.4998C42.5594 63.4998 49.8085 60.4971 55.1533 55.1523Z" fill="white"/>
</svg>
