<svg width="14" height="11" viewBox="0 0 14 11" fill="none" xmlns="http://www.w3.org/2000/svg">
<path d="M12.9999 0.33334L0.99994 0.333341C0.878447 0.333721 0.759357 0.367231 0.65549 0.430259C0.551622 0.493288 0.466912 0.583451 0.410477 0.691042C0.354041 0.798634 0.328016 0.919581 0.335205 1.04086C0.342394 1.16214 0.382523 1.27917 0.451274 1.37934L6.45128 10.046C6.69994 10.4053 7.29861 10.4053 7.54794 10.046L13.5479 1.37934C13.6174 1.27938 13.6581 1.16229 13.6657 1.04081C13.6733 0.919326 13.6474 0.798087 13.5909 0.690268C13.5344 0.582448 13.4495 0.49217 13.3453 0.429243C13.2411 0.366317 13.1217 0.333148 12.9999 0.33334Z" fill="black"/>
</svg>
