<svg width="70" height="74" viewBox="0 0 70 74" fill="none" xmlns="http://www.w3.org/2000/svg">
<rect x="7" width="63" height="63" rx="31.5" fill="black"/>
<path d="M35.1171 63.0613H35.3671V62.8113V61.3V61.05H35.1171H30.9191H30.6691V61.3V62.8113V63.0613H30.9191H35.1171ZM37.2162 58.8633H37.4662V58.6133V57.1019V56.8519H37.2162H28.82H28.57V57.1019V58.6133V58.8633H28.82H37.2162ZM24.7536 46.6848L24.7537 46.6848C26.831 48.8138 27.8144 50.9082 27.8144 53.0949V53.6595C27.8144 54.2153 28.2643 54.6652 28.82 54.6652H37.2162C37.7719 54.6652 38.2218 54.2153 38.2218 53.6595V53.0949C38.2218 50.9081 39.2032 48.8137 41.2804 46.6848L41.2805 46.6848C44.0279 43.8673 45.5684 40.6826 45.5684 37.7069C45.5684 31.0116 39.8207 25.3665 33.0181 25.3665C26.2176 25.3665 20.4678 31.0095 20.4678 37.7069C20.4678 40.6825 22.0061 43.8672 24.7536 46.6848ZM39.8416 45.2818L39.8415 45.2819C37.5439 47.6374 36.3431 50.056 36.221 52.6539H29.8152C29.6931 50.056 28.4924 47.6354 26.1947 45.2819C24.7855 43.8373 22.4791 40.9657 22.4791 37.709C22.4791 32.117 27.3037 27.3778 33.0181 27.3778C38.7325 27.3778 43.5571 32.117 43.5571 37.709C43.5571 40.9678 41.2506 43.8394 39.8416 45.2818Z" fill="white" stroke="white" stroke-width="0.5"/>
<path d="M2.24518 50.1714L4.82229 47.5943C6.0117 62.1092 18.2042 73.5565 33.0186 73.5565C46.205 73.5565 57.5273 64.6065 60.5557 51.7922L60.6131 51.549L60.37 51.4915L58.8986 51.143L58.6552 51.0854L58.5976 51.3288C55.7844 63.2327 45.2683 71.5452 33.0186 71.5452C19.3872 71.5452 8.14571 61.1138 6.85808 47.8143L9.21725 50.1735L9.39421 50.3505L9.57098 50.1733L10.6394 49.1028L10.8158 48.9261L10.6392 48.7494L5.908 44.0182L5.73126 43.8415L5.55448 44.0182L0.823263 48.7473L0.646581 48.9239L0.82305 49.1007L1.89146 50.1712L2.06823 50.3484L2.24518 50.1714ZM60.1293 46.5086L60.3061 46.6854L60.4828 46.5086L65.2162 41.7753L65.3931 41.5983L65.216 41.4216L64.1455 40.3531L63.9686 40.1766L63.792 40.3534L61.217 42.9303C60.0254 28.4175 47.833 16.9703 33.0186 16.9703C19.8385 16.9703 8.51624 25.9204 5.48792 38.7346L5.43043 38.9779L5.67369 39.0354L7.14721 39.3838L7.39057 39.4414L7.44805 39.198C10.2592 27.2941 20.7732 18.9816 33.0186 18.9816C46.6501 18.9816 57.8916 29.413 59.1792 42.7125L56.82 40.3533L56.6434 40.1767L56.4666 40.3531L55.3961 41.4216L55.219 41.5983L55.396 41.7753L60.1293 46.5086Z" fill="#00CDAC" stroke="#00CDAC" stroke-width="0.5"/>
</svg>
