<svg width="68" height="77" viewBox="0 0 68 77" fill="none" xmlns="http://www.w3.org/2000/svg">
<rect x="5" width="63" height="63" rx="31.5" fill="black"/>
<path d="M28.1036 20.4727C34.4153 20.4727 40.241 22.5535 44.9324 26.0664L43.124 28.0578C38.9154 24.9719 33.7225 23.1494 28.1036 23.1494C21.0817 23.1494 14.7247 25.9955 10.1232 30.597C5.52168 35.1984 2.6756 41.5555 2.6756 48.5774C2.6756 55.5993 5.52168 61.9563 10.1232 66.5578C14.7246 71.1593 21.0817 74.0054 28.1036 74.0054C35.1255 74.0054 41.4825 71.1593 46.084 66.5578C50.6855 61.9564 53.5316 55.5993 53.5316 48.5774C53.5316 42.0786 51.0936 36.1496 47.0826 31.6545L48.891 29.6631C53.4368 34.6561 56.2083 41.2932 56.2083 48.5775C56.2083 56.3382 53.0625 63.3644 47.9765 68.4503C42.8905 73.5363 35.8643 76.6821 28.1036 76.6821C20.3429 76.6821 13.3167 73.5363 8.2308 68.4503C3.1448 63.3644 -0.000976562 56.3382 -0.000976562 48.5775C-0.000976562 40.8167 3.14478 33.7906 8.2308 28.7046C13.3168 23.6186 20.3429 20.4727 28.1036 20.4727Z" fill="#00CDAC"/>
<path d="M28.1042 29.7827C32.0049 29.7827 35.6281 30.9712 38.6316 33.0058L36.8108 35.011C34.2999 33.3962 31.3115 32.4594 28.1042 32.4594C23.6531 32.4594 19.6236 34.2635 16.7069 37.1801C13.7902 40.0969 11.9861 44.1264 11.9861 48.5774C11.9861 53.0285 13.7902 57.058 16.7069 59.9747C19.6236 62.8914 23.6531 64.6955 28.1042 64.6955C32.5552 64.6955 36.5847 62.8914 39.5015 59.9747C42.4181 57.058 44.2222 53.0285 44.2222 48.5774C44.2222 44.8133 42.9318 41.3506 40.7696 38.6075L42.5903 36.6024C45.2814 39.8542 46.8989 44.027 46.8989 48.5774C46.8989 53.7673 44.7951 58.466 41.3939 61.8672C37.9927 65.2684 33.294 67.3721 28.1042 67.3721C22.9144 67.3721 18.2157 65.2684 14.8145 61.8672C11.4133 58.4659 9.30957 53.7672 9.30957 48.5774C9.30957 43.3876 11.4133 38.6889 14.8145 35.2877C18.2158 31.8865 22.9144 29.7827 28.1042 29.7827Z" fill="#00CDAC"/>
<path d="M28.1028 39.0927C29.5867 39.0927 30.9909 39.4336 32.2417 40.0412L30.333 42.1431C29.6343 41.901 28.884 41.7694 28.1028 41.7694C26.2227 41.7694 24.5206 42.5314 23.2887 43.7632C22.0569 44.9951 21.2949 46.6972 21.2949 48.5773C21.2949 50.4574 22.0569 52.1596 23.2887 53.3914C24.5206 54.6232 26.2227 55.3853 28.1028 55.3853C29.983 55.3853 31.6851 54.6232 32.9169 53.3914C34.1488 52.1596 34.9108 50.4574 34.9108 48.5773C34.9108 47.5642 34.6893 46.6028 34.2925 45.7388L36.2008 43.6374C37.0804 45.0763 37.5875 46.7676 37.5875 48.5773C37.5875 51.1963 36.5258 53.5675 34.8094 55.2839C33.093 57.0003 30.7218 58.062 28.1028 58.062C25.4839 58.062 23.1127 57.0003 21.3963 55.2839C19.6799 53.5675 18.6182 51.1963 18.6182 48.5773C18.6182 45.9584 19.6799 43.5871 21.3963 41.8708C23.1126 40.1544 25.4839 39.0927 28.1028 39.0927Z" fill="#00CDAC"/>
<path d="M51.3451 22.9854L49.3602 21.183L52.9097 17.2741L53.2895 19.5352C53.3958 20.1683 53.9281 20.6244 54.5443 20.6527L56.9027 20.8469L53.3269 24.7849L51.3786 23.0158L51.3451 22.9854ZM48.5583 24.0639L27.1155 47.6782C26.6189 48.2239 26.6587 49.0689 27.2044 49.5654C27.7501 50.062 28.595 50.0222 29.0916 49.4765L50.5364 25.8601L52.4614 27.6081C52.4797 27.6268 52.4986 27.645 52.5182 27.6628C53.0653 28.1597 53.9118 28.1189 54.4087 27.5717L60.6514 20.6932C60.8739 20.4759 61.022 20.1806 61.0495 19.8463C61.1101 19.1097 60.5621 18.4633 59.8255 18.4027L55.7517 18.0678L55.102 14.2004C55.0693 13.8841 54.9246 13.5782 54.6707 13.3476C54.1235 12.8507 53.277 12.8915 52.7802 13.4387L46.5371 20.3175C46.5184 20.3358 46.5002 20.3546 46.4824 20.3742C45.9855 20.9214 46.0263 21.7679 46.5735 22.2647L48.5583 24.0639Z" fill="white"/>
</svg>
